<?xml version="1.0" encoding="UTF-8" standalone="no"?>
<svg
   width="14.666026mm"
   height="13.787481mm"
   viewBox="0 0 14.666026 13.787481"
   version="1.1"
   id="svg8"
   inkscape:version="1.1.2 (0a00cf5339, 2022-02-04, custom)"
   sodipodi:docname="sbbhost-icon-2.svg"
   xmlns:inkscape="http://www.inkscape.org/namespaces/inkscape"
   xmlns:sodipodi="http://sodipodi.sourceforge.net/DTD/sodipodi-0.dtd"
   xmlns="http://www.w3.org/2000/svg"
   xmlns:svg="http://www.w3.org/2000/svg"
   xmlns:rdf="http://www.w3.org/1999/02/22-rdf-syntax-ns#"
   xmlns:cc="http://creativecommons.org/ns#"
   xmlns:dc="http://purl.org/dc/elements/1.1/">
  <defs
     id="defs2">
    <inkscape:path-effect
       effect="spiro"
       id="path-effect8070"
       is_visible="true"
       lpeversion="1" />
    <inkscape:path-effect
       effect="spiro"
       id="path-effect7698"
       is_visible="true"
       lpeversion="1" />
    <marker
       inkscape:isstock="true"
       style="overflow:visible"
       id="DotS"
       refX="0"
       refY="0"
       orient="auto"
       inkscape:stockid="DotS">
      <path
         transform="matrix(0.2,0,0,0.2,1.48,0.2)"
         style="fill:#666666;fill-opacity:1;fill-rule:evenodd;stroke:#666666;stroke-width:1pt;stroke-opacity:1"
         d="m -2.5,-1 c 0,2.76 -2.24,5 -5,5 -2.76,0 -5,-2.24 -5,-5 0,-2.76 2.24,-5 5,-5 2.76,0 5,2.24 5,5 z"
         id="path1122" />
    </marker>
    <marker
       inkscape:stockid="Arrow2Sstart"
       orient="auto"
       refY="0"
       refX="0"
       id="Arrow2Sstart"
       style="overflow:visible"
       inkscape:isstock="true">
      <path
         id="path1085"
         style="fill:#666666;fill-opacity:1;fill-rule:evenodd;stroke:#666666;stroke-width:0.625;stroke-linejoin:round;stroke-opacity:1"
         d="M 8.7185878,4.0337352 -2.2072895,0.01601326 8.7185884,-4.0017078 c -1.7454984,2.3720609 -1.7354408,5.6174519 -6e-7,8.035443 z"
         transform="matrix(0.3,0,0,0.3,-0.69,0)" />
    </marker>
    <marker
       inkscape:stockid="Arrow2Send"
       orient="auto"
       refY="0"
       refX="0"
       id="Arrow2Send"
       style="overflow:visible"
       inkscape:isstock="true">
      <path
         id="path1088"
         style="fill:#666666;fill-opacity:1;fill-rule:evenodd;stroke:#666666;stroke-width:0.625;stroke-linejoin:round;stroke-opacity:1"
         d="M 8.7185878,4.0337352 -2.2072895,0.01601326 8.7185884,-4.0017078 c -1.7454984,2.3720609 -1.7354408,5.6174519 -6e-7,8.035443 z"
         transform="matrix(-0.3,0,0,-0.3,0.69,0)" />
    </marker>
    <marker
       inkscape:stockid="Arrow2Mend"
       orient="auto"
       refY="0"
       refX="0"
       id="Arrow2Mend"
       style="overflow:visible"
       inkscape:isstock="true">
      <path
         id="path1082"
         style="fill:#000000;fill-opacity:1;fill-rule:evenodd;stroke:#000000;stroke-width:0.625;stroke-linejoin:round;stroke-opacity:1"
         d="M 8.7185878,4.0337352 -2.2072895,0.01601326 8.7185884,-4.0017078 c -1.7454984,2.3720609 -1.7354408,5.6174519 -6e-7,8.035443 z"
         transform="scale(-0.6)" />
    </marker>
    <marker
       inkscape:stockid="Arrow1Send"
       orient="auto"
       refY="0"
       refX="0"
       id="Arrow1Send"
       style="overflow:visible"
       inkscape:isstock="true">
      <path
         id="path1070"
         d="M 0,0 5,-5 -12.5,0 5,5 Z"
         style="fill:#000000;fill-opacity:1;fill-rule:evenodd;stroke:#000000;stroke-width:1pt;stroke-opacity:1"
         transform="matrix(-0.2,0,0,-0.2,-1.2,0)" />
    </marker>
    <marker
       inkscape:isstock="true"
       style="overflow:visible"
       id="marker6209"
       refX="0"
       refY="0"
       orient="auto"
       inkscape:stockid="Arrow1Mend">
      <path
         transform="matrix(-0.4,0,0,-0.4,-4,0)"
         style="fill:#000000;fill-opacity:1;fill-rule:evenodd;stroke:#000000;stroke-width:1pt;stroke-opacity:1"
         d="M 0,0 5,-5 -12.5,0 5,5 Z"
         id="path6207" />
    </marker>
    <marker
       inkscape:isstock="true"
       style="overflow:visible"
       id="marker4284"
       refX="0"
       refY="0"
       orient="auto"
       inkscape:stockid="Arrow1Mend">
      <path
         transform="matrix(-0.4,0,0,-0.4,-4,0)"
         style="fill:#000000;fill-opacity:1;fill-rule:evenodd;stroke:#000000;stroke-width:1pt;stroke-opacity:1"
         d="M 0,0 5,-5 -12.5,0 5,5 Z"
         id="path4282" />
    </marker>
    <marker
       inkscape:isstock="true"
       style="overflow:visible"
       id="marker4172"
       refX="0"
       refY="0"
       orient="auto"
       inkscape:stockid="Arrow1Mstart">
      <path
         transform="matrix(0.4,0,0,0.4,4,0)"
         style="fill:#000000;fill-opacity:1;fill-rule:evenodd;stroke:#000000;stroke-width:1pt;stroke-opacity:1"
         d="M 0,0 5,-5 -12.5,0 5,5 Z"
         id="path4170" />
    </marker>
    <inkscape:path-effect
       lpeversion="1"
       is_visible="true"
       id="path-effect4132"
       effect="spiro" />
    <inkscape:path-effect
       effect="spiro"
       id="path-effect3679"
       is_visible="true"
       lpeversion="1" />
    <marker
       inkscape:isstock="true"
       style="overflow:visible"
       id="marker3393"
       refX="0"
       refY="0"
       orient="auto"
       inkscape:stockid="Arrow1Mstart">
      <path
         transform="matrix(0.4,0,0,0.4,4,0)"
         style="fill:#000000;fill-opacity:1;fill-rule:evenodd;stroke:#000000;stroke-width:1pt;stroke-opacity:1"
         d="M 0,0 5,-5 -12.5,0 5,5 Z"
         id="path3391" />
    </marker>
    <marker
       inkscape:isstock="true"
       style="overflow:visible"
       id="marker1983"
       refX="0"
       refY="0"
       orient="auto"
       inkscape:stockid="Arrow1Mend">
      <path
         transform="matrix(-0.4,0,0,-0.4,-4,0)"
         style="fill:#000000;fill-opacity:1;fill-rule:evenodd;stroke:#000000;stroke-width:1pt;stroke-opacity:1"
         d="M 0,0 5,-5 -12.5,0 5,5 Z"
         id="path1981" />
    </marker>
    <inkscape:path-effect
       effect="spiro"
       id="path-effect1913"
       is_visible="true"
       lpeversion="1" />
    <inkscape:path-effect
       lpeversion="1"
       is_visible="true"
       id="path-effect1909"
       effect="spiro" />
    <inkscape:path-effect
       lpeversion="1"
       is_visible="true"
       id="path-effect1905"
       effect="spiro" />
    <inkscape:path-effect
       effect="spiro"
       id="path-effect1901"
       is_visible="true"
       lpeversion="1" />
    <inkscape:path-effect
       effect="spiro"
       id="path-effect1815"
       is_visible="true"
       lpeversion="1" />
    <inkscape:path-effect
       lpeversion="1"
       is_visible="true"
       id="path-effect1811"
       effect="spiro" />
    <inkscape:path-effect
       lpeversion="1"
       is_visible="true"
       id="path-effect1559"
       effect="spiro" />
    <marker
       inkscape:stockid="Arrow1Mend"
       orient="auto"
       refY="0"
       refX="0"
       id="marker1513"
       style="overflow:visible"
       inkscape:isstock="true">
      <path
         id="path1511"
         d="M 0,0 5,-5 -12.5,0 5,5 Z"
         style="fill:#000000;fill-opacity:1;fill-rule:evenodd;stroke:#000000;stroke-width:1pt;stroke-opacity:1"
         transform="matrix(-0.4,0,0,-0.4,-4,0)" />
    </marker>
    <marker
       inkscape:stockid="Arrow1Mend"
       orient="auto"
       refY="0"
       refX="0"
       id="marker1385"
       style="overflow:visible"
       inkscape:isstock="true">
      <path
         id="path1383"
         d="M 0,0 5,-5 -12.5,0 5,5 Z"
         style="fill:#000000;fill-opacity:1;fill-rule:evenodd;stroke:#000000;stroke-width:1pt;stroke-opacity:1"
         transform="matrix(-0.4,0,0,-0.4,-4,0)" />
    </marker>
    <inkscape:path-effect
       effect="spiro"
       id="path-effect1371"
       is_visible="true"
       lpeversion="1" />
    <inkscape:path-effect
       lpeversion="1"
       is_visible="true"
       id="path-effect1053"
       effect="spiro" />
    <inkscape:path-effect
       effect="spiro"
       id="path-effect1049"
       is_visible="true"
       lpeversion="1" />
    <inkscape:path-effect
       lpeversion="1"
       is_visible="true"
       id="path-effect1045"
       effect="spiro" />
    <inkscape:path-effect
       lpeversion="1"
       is_visible="true"
       id="path-effect1041"
       effect="spiro" />
    <inkscape:path-effect
       effect="spiro"
       id="path-effect1036"
       is_visible="true"
       lpeversion="1" />
    <inkscape:path-effect
       effect="spiro"
       id="path-effect1032"
       is_visible="true"
       lpeversion="1" />
    <inkscape:path-effect
       lpeversion="1"
       is_visible="true"
       id="path-effect1026"
       effect="spiro" />
    <inkscape:path-effect
       lpeversion="1"
       is_visible="true"
       id="path-effect1019"
       effect="spiro" />
    <inkscape:path-effect
       lpeversion="1"
       is_visible="true"
       id="path-effect1015"
       effect="spiro" />
    <inkscape:path-effect
       lpeversion="1"
       is_visible="true"
       id="path-effect1003"
       effect="spiro" />
    <inkscape:path-effect
       lpeversion="1"
       is_visible="true"
       id="path-effect999"
       effect="spiro" />
    <inkscape:path-effect
       lpeversion="1"
       is_visible="true"
       id="path-effect985"
       effect="spiro" />
    <inkscape:path-effect
       lpeversion="1"
       is_visible="true"
       id="path-effect967"
       effect="spiro" />
    <inkscape:path-effect
       lpeversion="1"
       is_visible="true"
       id="path-effect963"
       effect="spiro" />
    <inkscape:path-effect
       lpeversion="1"
       is_visible="true"
       id="path-effect959"
       effect="spiro" />
    <inkscape:path-effect
       lpeversion="1"
       is_visible="true"
       id="path-effect955"
       effect="spiro" />
    <inkscape:path-effect
       lpeversion="1"
       is_visible="true"
       id="path-effect951"
       effect="spiro" />
    <inkscape:path-effect
       effect="spiro"
       id="path-effect947"
       is_visible="true"
       lpeversion="1" />
    <inkscape:path-effect
       lpeversion="1"
       is_visible="true"
       id="path-effect943"
       effect="spiro" />
    <inkscape:path-effect
       lpeversion="1"
       is_visible="true"
       id="path-effect939"
       effect="spiro" />
    <inkscape:path-effect
       lpeversion="1"
       is_visible="true"
       id="path-effect935"
       effect="spiro" />
    <inkscape:path-effect
       lpeversion="1"
       is_visible="true"
       id="path-effect931"
       effect="spiro" />
    <inkscape:path-effect
       lpeversion="1"
       is_visible="true"
       id="path-effect927"
       effect="spiro" />
    <inkscape:path-effect
       lpeversion="1"
       is_visible="true"
       id="path-effect923"
       effect="spiro" />
    <inkscape:path-effect
       lpeversion="1"
       is_visible="true"
       id="path-effect919"
       effect="spiro" />
    <inkscape:path-effect
       lpeversion="1"
       is_visible="true"
       id="path-effect915"
       effect="spiro" />
    <inkscape:path-effect
       lpeversion="1"
       is_visible="true"
       id="path-effect911"
       effect="spiro" />
    <inkscape:path-effect
       lpeversion="1"
       is_visible="true"
       id="path-effect907"
       effect="spiro" />
    <inkscape:path-effect
       lpeversion="1"
       is_visible="true"
       id="path-effect903"
       effect="spiro" />
    <inkscape:path-effect
       lpeversion="1"
       is_visible="true"
       id="path-effect899"
       effect="spiro" />
    <inkscape:path-effect
       lpeversion="1"
       is_visible="true"
       id="path-effect895"
       effect="spiro" />
    <inkscape:path-effect
       lpeversion="1"
       is_visible="true"
       id="path-effect889"
       effect="spiro" />
    <inkscape:path-effect
       lpeversion="1"
       is_visible="true"
       id="path-effect885"
       effect="spiro" />
    <inkscape:path-effect
       lpeversion="1"
       is_visible="true"
       id="path-effect881"
       effect="spiro" />
    <inkscape:path-effect
       lpeversion="1"
       is_visible="true"
       id="path-effect877"
       effect="spiro" />
    <inkscape:path-effect
       lpeversion="1"
       is_visible="true"
       id="path-effect873"
       effect="spiro" />
    <inkscape:path-effect
       lpeversion="1"
       is_visible="true"
       id="path-effect869"
       effect="spiro" />
    <inkscape:path-effect
       lpeversion="1"
       is_visible="true"
       id="path-effect865"
       effect="spiro" />
    <inkscape:path-effect
       lpeversion="1"
       is_visible="true"
       id="path-effect861"
       effect="spiro" />
    <inkscape:path-effect
       lpeversion="1"
       is_visible="true"
       id="path-effect857"
       effect="spiro" />
    <g
       id="g1985">
      <symbol
         id="symbol4931"
         overflow="visible">
        <path
           id="path2905"
           d=""
           style="stroke:none" />
      </symbol>
      <symbol
         id="symbol7022"
         overflow="visible">
        <path
           id="path2271"
           d="M 4.609375,-3.375 C 4.65625,-3.59375 4.75,-3.96875 4.75,-4.03125 c 0,-0.171875 -0.140625,-0.265625 -0.28125,-0.265625 -0.125,0 -0.296875,0.078125 -0.375,0.28125 -0.03125,0.0625 -0.5,1.96875 -0.5625,2.234375 C 3.453125,-1.484375 3.4375,-1.3125 3.4375,-1.125 c 0,0.109375 0,0.125 0.015625,0.171875 -0.234375,0.53125 -0.53125,0.84375 -0.921875,0.84375 -0.796875,0 -0.796875,-0.734375 -0.796875,-0.90625 0,-0.3125 0.046875,-0.703125 0.515625,-1.9375 0.109375,-0.296875 0.171875,-0.4375 0.171875,-0.640625 0,-0.4375 -0.328125,-0.8125 -0.8125,-0.8125 -0.953125,0 -1.3125,1.453125 -1.3125,1.53125 0,0.109375 0.09375,0.109375 0.109375,0.109375 0.109375,0 0.109375,-0.03125 0.15625,-0.1875 C 0.84375,-3.875 1.21875,-4.1875 1.578125,-4.1875 c 0.09375,0 0.25,0.015625 0.25,0.328125 0,0.25 -0.109375,0.53125 -0.1875,0.703125 -0.4375,1.171875 -0.546875,1.625 -0.546875,2.015625 0,0.90625 0.65625,1.25 1.40625,1.25 0.171875,0 0.640625,0 1.03125,-0.703125 0.265625,0.640625 0.953125,0.703125 1.25,0.703125 0.75,0 1.1875,-0.625 1.453125,-1.21875 0.328125,-0.78125 0.65625,-2.125 0.65625,-2.59375 0,-0.546875 -0.265625,-0.703125 -0.4375,-0.703125 -0.25,0 -0.5,0.265625 -0.5,0.484375 0,0.125 0.0625,0.1875 0.140625,0.265625 0.109375,0.109375 0.359375,0.359375 0.359375,0.84375 0,0.34375 -0.28125,1.3125 -0.546875,1.828125 -0.25,0.53125 -0.609375,0.875 -1.09375,0.875 -0.46875,0 -0.734375,-0.296875 -0.734375,-0.875 0,-0.265625 0.0625,-0.578125 0.109375,-0.71875 z m 0,0"
           style="stroke:none" />
      </symbol>
    </g>
    <g
       id="g2123">
      <symbol
         id="symbol8310"
         overflow="visible">
        <path
           id="path8611"
           d=""
           style="stroke:none" />
      </symbol>
      <symbol
         id="symbol2458"
         overflow="visible">
        <path
           id="path7854"
           d="M 3.71875,-3.765625 C 3.53125,-4.140625 3.25,-4.40625 2.796875,-4.40625 c -1.15625,0 -2.390625,1.46875 -2.390625,2.921875 0,0.9375 0.546875,1.59375 1.3125,1.59375 0.203125,0 0.703125,-0.046875 1.296875,-0.75 0.078125,0.421875 0.4375,0.75 0.90625,0.75 0.359375,0 0.578125,-0.234375 0.75,-0.546875 0.15625,-0.359375 0.296875,-0.96875 0.296875,-0.984375 0,-0.109375 -0.09375,-0.109375 -0.125,-0.109375 -0.09375,0 -0.109375,0.046875 -0.140625,0.1875 -0.171875,0.640625 -0.34375,1.234375 -0.75,1.234375 -0.28125,0 -0.296875,-0.265625 -0.296875,-0.453125 0,-0.21875 0.015625,-0.3125 0.125,-0.75 C 3.890625,-1.71875 3.90625,-1.828125 4,-2.203125 L 4.359375,-3.59375 c 0.0625,-0.28125 0.0625,-0.296875 0.0625,-0.34375 0,-0.171875 -0.109375,-0.265625 -0.28125,-0.265625 -0.25,0 -0.390625,0.21875 -0.421875,0.4375 z M 3.078125,-1.1875 C 3.015625,-1 3.015625,-0.984375 2.875,-0.8125 2.4375,-0.265625 2.03125,-0.109375 1.75,-0.109375 c -0.5,0 -0.640625,-0.546875 -0.640625,-0.9375 0,-0.5 0.3125,-1.71875 0.546875,-2.1875 0.3125,-0.578125 0.75,-0.953125 1.15625,-0.953125 0.640625,0 0.78125,0.8125 0.78125,0.875 0,0.0625 -0.015625,0.125 -0.03125,0.171875 z m 0,0"
           style="stroke:none" />
      </symbol>
      <symbol
         id="symbol8437"
         overflow="visible">
        <path
           id="path4804"
           d=""
           style="stroke:none" />
      </symbol>
      <symbol
         id="symbol8366"
         overflow="visible">
        <path
           id="path6923"
           d="m 0.84375,-0.4375 c -0.015625,0.09375 -0.0625,0.265625 -0.0625,0.28125 0,0.15625 0.125,0.21875 0.234375,0.21875 0.125,0 0.234375,-0.078125 0.28125,-0.140625 0.03125,-0.0625 0.078125,-0.296875 0.125,-0.4375 0.03125,-0.125 0.109375,-0.453125 0.140625,-0.625 0.046875,-0.15625 0.09375,-0.3125 0.125,-0.46875 0.078125,-0.28125 0.09375,-0.34375 0.296875,-0.625 C 2.171875,-2.515625 2.5,-2.875 3.03125,-2.875 c 0.390625,0 0.40625,0.359375 0.40625,0.484375 0,0.421875 -0.296875,1.1875 -0.40625,1.484375 -0.078125,0.203125 -0.109375,0.265625 -0.109375,0.375 0,0.375 0.296875,0.59375 0.65625,0.59375 0.703125,0 1,-0.953125 1,-1.0625 0,-0.09375 -0.078125,-0.09375 -0.109375,-0.09375 -0.09375,0 -0.09375,0.046875 -0.125,0.125 C 4.1875,-0.40625 3.875,-0.125 3.609375,-0.125 c -0.15625,0 -0.1875,-0.09375 -0.1875,-0.25 0,-0.15625 0.046875,-0.25 0.171875,-0.5625 0.078125,-0.21875 0.359375,-0.953125 0.359375,-1.34375 0,-0.671875 -0.53125,-0.796875 -0.90625,-0.796875 -0.578125,0 -0.96875,0.359375 -1.171875,0.640625 -0.046875,-0.484375 -0.453125,-0.640625 -0.75,-0.640625 -0.296875,0 -0.453125,0.21875 -0.546875,0.375 -0.15625,0.265625 -0.25,0.65625 -0.25,0.703125 0,0.078125 0.09375,0.078125 0.125,0.078125 0.09375,0 0.09375,-0.015625 0.140625,-0.203125 0.109375,-0.40625 0.25,-0.75 0.515625,-0.75 0.1875,0 0.234375,0.15625 0.234375,0.34375 0,0.125 -0.0625,0.390625 -0.125,0.578125 -0.046875,0.1875 -0.109375,0.46875 -0.140625,0.625 z m 0,0"
           style="stroke:none" />
      </symbol>
    </g>
    <g
       id="g2262">
      <symbol
         id="symbol3508"
         overflow="visible">
        <path
           id="path7045"
           d=""
           style="stroke:none" />
      </symbol>
      <symbol
         id="symbol187"
         overflow="visible">
        <path
           id="path1458"
           d="m 0.328125,1.71875 c -0.03125,0.125 -0.03125,0.140625 -0.03125,0.171875 0,0.140625 0.109375,0.265625 0.28125,0.265625 0.203125,0 0.328125,-0.1875 0.34375,-0.21875 0.0625,-0.078125 0.375,-1.421875 0.640625,-2.5 0.203125,0.40625 0.515625,0.671875 0.984375,0.671875 C 3.71875,0.109375 5,-1.296875 5,-2.78125 c 0,-1.0625 -0.65625,-1.625 -1.375,-1.625 -0.96875,0 -2.015625,1 -2.3125,2.21875 z m 2.21875,-1.828125 C 1.84375,-0.109375 1.6875,-0.90625 1.6875,-1 c 0,-0.03125 0.046875,-0.234375 0.078125,-0.359375 0.28125,-1.125 0.375,-1.484375 0.59375,-1.875 0.4375,-0.734375 0.9375,-0.953125 1.234375,-0.953125 0.375,0 0.6875,0.296875 0.6875,0.984375 0,0.546875 -0.28125,1.65625 -0.546875,2.140625 -0.328125,0.640625 -0.8125,0.953125 -1.1875,0.953125 z m 0,0"
           style="stroke:none" />
      </symbol>
    </g>
    <g
       id="g3863">
      <symbol
         id="symbol4709"
         overflow="visible">
        <path
           id="path541"
           d=""
           style="stroke:none" />
      </symbol>
      <symbol
         id="symbol9522"
         overflow="visible">
        <path
           id="path5710"
           d="m 2.859375,-6.8125 c 0,0 0,-0.109375 -0.125,-0.109375 -0.234375,0 -0.953125,0.078125 -1.21875,0.109375 -0.078125,0 -0.1875,0.015625 -0.1875,0.1875 0,0.125 0.09375,0.125 0.234375,0.125 0.484375,0 0.5,0.0625 0.5,0.171875 L 2.03125,-6.125 0.59375,-0.390625 c -0.046875,0.140625 -0.046875,0.15625 -0.046875,0.21875 0,0.234375 0.203125,0.28125 0.296875,0.28125 0.15625,0 0.3125,-0.125 0.359375,-0.265625 l 0.1875,-0.75 0.21875,-0.890625 C 1.671875,-2.03125 1.734375,-2.25 1.78125,-2.46875 1.796875,-2.53125 1.890625,-2.859375 1.890625,-2.921875 1.921875,-3.015625 2.234375,-3.5625 2.578125,-3.84375 2.796875,-4 3.09375,-4.1875 3.53125,-4.1875 c 0.421875,0 0.53125,0.34375 0.53125,0.703125 0,0.53125 -0.375,1.625 -0.609375,2.234375 C 3.375,-1.03125 3.3125,-0.90625 3.3125,-0.703125 c 0,0.46875 0.359375,0.8125 0.828125,0.8125 0.9375,0 1.296875,-1.453125 1.296875,-1.53125 0,-0.109375 -0.078125,-0.109375 -0.109375,-0.109375 -0.109375,0 -0.109375,0.03125 -0.15625,0.1875 -0.140625,0.53125 -0.46875,1.234375 -1.015625,1.234375 -0.171875,0 -0.234375,-0.09375 -0.234375,-0.328125 0,-0.25 0.078125,-0.484375 0.171875,-0.703125 0.15625,-0.4375 0.609375,-1.625 0.609375,-2.203125 0,-0.640625 -0.390625,-1.0625 -1.140625,-1.0625 -0.625,0 -1.109375,0.3125 -1.484375,0.765625 z m 0,0"
           style="stroke:none" />
      </symbol>
    </g>
    <g
       id="g5197">
      <symbol
         id="symbol8238"
         overflow="visible">
        <path
           id="path8747"
           d=""
           style="stroke:none" />
      </symbol>
      <symbol
         id="symbol7405"
         overflow="visible">
        <path
           id="path8736"
           d="m 2.375,-6.8125 c 0,0 0,-0.109375 -0.125,-0.109375 -0.21875,0 -0.953125,0.078125 -1.21875,0.109375 -0.078125,0 -0.1875,0.015625 -0.1875,0.1875 0,0.125 0.09375,0.125 0.25,0.125 0.46875,0 0.484375,0.0625 0.484375,0.171875 0,0.0625 -0.078125,0.40625 -0.125,0.609375 l -0.828125,3.25 c -0.109375,0.5 -0.15625,0.671875 -0.15625,1.015625 0,0.9375 0.53125,1.5625 1.265625,1.5625 1.171875,0 2.40625,-1.484375 2.40625,-2.921875 0,-0.90625 -0.53125,-1.59375 -1.328125,-1.59375 -0.453125,0 -0.875,0.296875 -1.171875,0.59375 z M 1.453125,-3.046875 C 1.5,-3.265625 1.5,-3.28125 1.59375,-3.390625 2.078125,-4.03125 2.53125,-4.1875 2.796875,-4.1875 c 0.359375,0 0.625,0.296875 0.625,0.9375 0,0.59375 -0.328125,1.734375 -0.515625,2.109375 -0.328125,0.671875 -0.78125,1.03125 -1.171875,1.03125 -0.34375,0 -0.671875,-0.265625 -0.671875,-1 0,-0.203125 0,-0.390625 0.15625,-1.015625 z m 0,0"
           style="stroke:none" />
      </symbol>
    </g>
    <g
       id="g2389">
      <symbol
         id="symbol7768"
         overflow="visible">
        <path
           id="path5833"
           d=""
           style="stroke:none" />
      </symbol>
      <symbol
         id="symbol8772"
         overflow="visible">
        <path
           id="path1098"
           d="m 5.734375,-5.671875 c 0,-0.75 -0.546875,-1.359375 -1.359375,-1.359375 -0.578125,0 -0.859375,0.15625 -1.203125,0.40625 C 2.625,-6.21875 2.078125,-5.25 1.890625,-4.5 L 0.296875,1.828125 C 0.296875,1.875 0.34375,1.9375 0.421875,1.9375 0.5,1.9375 0.53125,1.90625 0.53125,1.890625 L 1.234375,-0.875 c 0.1875,0.609375 0.625,0.96875 1.359375,0.96875 C 3.3125,0.09375 4.0625,-0.25 4.515625,-0.6875 5,-1.140625 5.3125,-1.78125 5.3125,-2.515625 c 0,-0.71875 -0.375,-1.25 -0.734375,-1.484375 0.578125,-0.34375 1.15625,-0.953125 1.15625,-1.671875 z M 3.9375,-4.015625 c -0.125,0.046875 -0.234375,0.0625 -0.484375,0.0625 -0.140625,0 -0.328125,0.015625 -0.4375,-0.03125 0.03125,-0.109375 0.390625,-0.078125 0.5,-0.078125 0.203125,0 0.296875,0 0.421875,0.046875 z M 5.171875,-5.90625 c 0,0.703125 -0.375,1.421875 -0.890625,1.734375 C 4,-4.28125 3.8125,-4.296875 3.515625,-4.296875 c -0.21875,0 -0.78125,-0.015625 -0.78125,0.3125 0,0.28125 0.515625,0.25 0.6875,0.25 0.375,0 0.53125,0 0.828125,-0.125 0.375,0.359375 0.421875,0.671875 0.4375,1.125 0.015625,0.578125 -0.21875,1.328125 -0.5,1.71875 C 3.796875,-0.484375 3.125,-0.125 2.5625,-0.125 c -0.765625,0 -1.140625,-0.578125 -1.140625,-1.28125 0,-0.09375 0,-0.25 0.046875,-0.4375 L 2.109375,-4.359375 C 2.328125,-5.21875 3.046875,-6.8125 4.25,-6.8125 c 0.578125,0 0.921875,0.3125 0.921875,0.90625 z m 0,0"
           style="stroke:none" />
      </symbol>
    </g>
    <g
       id="g3499">
      <symbol
         id="symbol4484"
         overflow="visible">
        <path
           id="path8819"
           d=""
           style="stroke:none" />
      </symbol>
      <symbol
         id="symbol2428"
         overflow="visible">
        <path
           id="path9730"
           d="m 0.875,-0.59375 c -0.03125,0.15625 -0.09375,0.390625 -0.09375,0.4375 0,0.171875 0.140625,0.265625 0.296875,0.265625 0.125,0 0.296875,-0.078125 0.375,-0.28125 C 1.46875,-0.203125 1.796875,-1.5625 1.84375,-1.75 c 0.078125,-0.328125 0.265625,-1.015625 0.3125,-1.296875 0.046875,-0.125 0.328125,-0.59375 0.5625,-0.8125 0.078125,-0.0625 0.375,-0.328125 0.796875,-0.328125 0.265625,0 0.40625,0.125 0.421875,0.125 -0.296875,0.046875 -0.515625,0.28125 -0.515625,0.546875 0,0.15625 0.109375,0.34375 0.375,0.34375 0.265625,0 0.546875,-0.234375 0.546875,-0.59375 0,-0.34375 -0.3125,-0.640625 -0.828125,-0.640625 C 2.875,-4.40625 2.4375,-3.921875 2.25,-3.640625 2.15625,-4.09375 1.796875,-4.40625 1.328125,-4.40625 0.875,-4.40625 0.6875,-4.015625 0.59375,-3.84375 0.421875,-3.5 0.296875,-2.90625 0.296875,-2.875 c 0,0.109375 0.09375,0.109375 0.109375,0.109375 0.109375,0 0.109375,-0.015625 0.171875,-0.234375 0.171875,-0.703125 0.375,-1.1875 0.734375,-1.1875 0.15625,0 0.296875,0.078125 0.296875,0.453125 0,0.21875 -0.03125,0.328125 -0.15625,0.84375 z m 0,0"
           style="stroke:none" />
      </symbol>
      <symbol
         id="symbol1313"
         overflow="visible">
        <path
           id="path775"
           d=""
           style="stroke:none" />
      </symbol>
      <symbol
         id="symbol1044"
         overflow="visible">
        <path
           id="path4879"
           d="M 3.59375,-2.21875 C 3.59375,-2.984375 3.5,-3.546875 3.1875,-4.03125 2.96875,-4.34375 2.53125,-4.625 1.984375,-4.625 c -1.625,0 -1.625,1.90625 -1.625,2.40625 0,0.5 0,2.359375 1.625,2.359375 1.609375,0 1.609375,-1.859375 1.609375,-2.359375 z M 1.984375,-0.0625 c -0.328125,0 -0.75,-0.1875 -0.890625,-0.75 C 1,-1.21875 1,-1.796875 1,-2.3125 1,-2.828125 1,-3.359375 1.09375,-3.734375 1.25,-4.28125 1.6875,-4.4375 1.984375,-4.4375 c 0.375,0 0.734375,0.234375 0.859375,0.640625 0.109375,0.375 0.125,0.875 0.125,1.484375 0,0.515625 0,1.03125 -0.09375,1.46875 -0.140625,0.640625 -0.609375,0.78125 -0.890625,0.78125 z m 0,0"
           style="stroke:none" />
      </symbol>
    </g>
    <g
       id="g3232">
      <symbol
         id="symbol8025"
         overflow="visible">
        <path
           id="path2866"
           d=""
           style="stroke:none" />
      </symbol>
      <symbol
         id="symbol3655"
         overflow="visible">
        <path
           id="path8076"
           d="m 5.90625,-0.625 c 0.140625,0.21875 0.53125,0.609375 0.640625,0.609375 0.09375,0 0.09375,-0.078125 0.09375,-0.21875 V -1.96875 c 0,-0.390625 0.03125,-0.4375 0.6875,-0.4375 v -0.3125 c -0.375,0 -0.921875,0.03125 -1.21875,0.03125 -0.390625,0 -1.25,0 -1.609375,-0.03125 v 0.3125 H 4.828125 C 5.71875,-2.40625 5.75,-2.296875 5.75,-1.9375 v 0.640625 c 0,1.125 -1.265625,1.203125 -1.546875,1.203125 -0.640625,0 -2.625,-0.34375 -2.625,-3.3125 0,-2.984375 1.96875,-3.3125 2.5625,-3.3125 1.078125,0 1.984375,0.890625 2.171875,2.359375 0.03125,0.140625 0.03125,0.171875 0.171875,0.171875 0.15625,0 0.15625,-0.03125 0.15625,-0.234375 V -6.78125 c 0,-0.171875 0,-0.25 -0.109375,-0.25 -0.046875,0 -0.078125,0 -0.15625,0.125 l -0.5,0.734375 C 5.546875,-6.484375 5.015625,-7.03125 4.03125,-7.03125 c -1.859375,0 -3.46875,1.578125 -3.46875,3.625 0,2.046875 1.59375,3.625 3.484375,3.625 0.734375,0 1.53125,-0.265625 1.859375,-0.84375 z m 0,0"
           style="stroke:none" />
      </symbol>
    </g>
    <g
       id="g8908">
      <symbol
         overflow="visible"
         id="symbol7691">
        <path
           style="stroke:none"
           d=""
           id="path4687" />
      </symbol>
      <symbol
         overflow="visible"
         id="symbol9118">
        <path
           style="stroke:none"
           d="M 3.328125,-3.015625 C 3.390625,-3.265625 3.625,-4.1875 4.3125,-4.1875 c 0.046875,0 0.296875,0 0.5,0.125 C 4.53125,-4 4.34375,-3.765625 4.34375,-3.515625 c 0,0.15625 0.109375,0.34375 0.375,0.34375 0.21875,0 0.53125,-0.171875 0.53125,-0.578125 0,-0.515625 -0.578125,-0.65625 -0.921875,-0.65625 -0.578125,0 -0.921875,0.53125 -1.046875,0.75 -0.25,-0.65625 -0.78125,-0.75 -1.078125,-0.75 -1.03125,0 -1.609375,1.28125 -1.609375,1.53125 0,0.109375 0.109375,0.109375 0.125,0.109375 0.078125,0 0.109375,-0.03125 0.125,-0.109375 0.34375,-1.0625 1,-1.3125 1.34375,-1.3125 0.1875,0 0.53125,0.09375 0.53125,0.671875 0,0.3125 -0.171875,0.96875 -0.53125,2.375 -0.15625,0.609375 -0.515625,1.03125 -0.953125,1.03125 -0.0625,0 -0.28125,0 -0.5,-0.125 0.25,-0.0625 0.46875,-0.265625 0.46875,-0.546875 0,-0.265625 -0.21875,-0.34375 -0.359375,-0.34375 -0.3125,0 -0.546875,0.25 -0.546875,0.578125 0,0.453125 0.484375,0.65625 0.921875,0.65625 0.671875,0 1.03125,-0.703125 1.046875,-0.75 0.125,0.359375 0.484375,0.75 1.078125,0.75 1.03125,0 1.59375,-1.28125 1.59375,-1.53125 0,-0.109375 -0.078125,-0.109375 -0.109375,-0.109375 -0.09375,0 -0.109375,0.046875 -0.140625,0.109375 -0.328125,1.078125 -1,1.3125 -1.3125,1.3125 -0.390625,0 -0.546875,-0.3125 -0.546875,-0.65625 0,-0.21875 0.046875,-0.4375 0.15625,-0.875 z m 0,0"
           id="path7158" />
      </symbol>
    </g>
    <g
       id="g1107">
      <symbol
         overflow="visible"
         id="symbol270">
        <path
           style="stroke:none"
           d=""
           id="path6984" />
      </symbol>
      <symbol
         overflow="visible"
         id="symbol6171">
        <path
           style="stroke:none"
           d="m 4.84375,-3.796875 c 0.046875,-0.140625 0.046875,-0.15625 0.046875,-0.234375 0,-0.171875 -0.140625,-0.265625 -0.296875,-0.265625 -0.09375,0 -0.25,0.0625 -0.34375,0.203125 -0.015625,0.0625 -0.109375,0.359375 -0.140625,0.546875 -0.078125,0.25 -0.140625,0.53125 -0.203125,0.796875 l -0.453125,1.796875 c -0.03125,0.140625 -0.46875,0.84375 -1.125,0.84375 -0.5,0 -0.609375,-0.4375 -0.609375,-0.8125 C 1.71875,-1.375 1.890625,-2 2.21875,-2.875 2.375,-3.28125 2.421875,-3.390625 2.421875,-3.59375 c 0,-0.4375 -0.3125,-0.8125 -0.8125,-0.8125 -0.953125,0 -1.3125,1.453125 -1.3125,1.53125 0,0.109375 0.09375,0.109375 0.109375,0.109375 0.109375,0 0.109375,-0.03125 0.15625,-0.1875 0.28125,-0.9375 0.671875,-1.234375 1.015625,-1.234375 0.078125,0 0.25,0 0.25,0.3125 0,0.25 -0.109375,0.515625 -0.171875,0.703125 -0.40625,1.0625 -0.578125,1.625 -0.578125,2.09375 0,0.890625 0.625,1.1875 1.21875,1.1875 0.390625,0 0.71875,-0.171875 1,-0.453125 -0.125,0.515625 -0.25,1.015625 -0.640625,1.546875 -0.265625,0.328125 -0.640625,0.625 -1.09375,0.625 -0.140625,0 -0.59375,-0.03125 -0.765625,-0.421875 0.15625,0 0.296875,0 0.421875,-0.125 C 1.328125,1.203125 1.421875,1.0625 1.421875,0.875 1.421875,0.5625 1.15625,0.53125 1.0625,0.53125 0.828125,0.53125 0.5,0.6875 0.5,1.171875 c 0,0.5 0.4375,0.875 1.0625,0.875 1.015625,0 2.046875,-0.90625 2.328125,-2.03125 z m 0,0"
           id="path524" />
      </symbol>
    </g>
    <g
       id="g6251">
      <symbol
         overflow="visible"
         id="symbol7053">
        <path
           style="stroke:none"
           d=""
           id="path6114" />
      </symbol>
      <symbol
         overflow="visible"
         id="symbol9925">
        <path
           style="stroke:none"
           d="m 1.328125,-0.828125 c 0.53125,-0.578125 0.828125,-0.828125 1.1875,-1.140625 0,0 0.609375,-0.53125 0.96875,-0.890625 C 4.4375,-3.78125 4.65625,-4.265625 4.65625,-4.3125 c 0,-0.09375 -0.09375,-0.09375 -0.109375,-0.09375 -0.078125,0 -0.09375,0.015625 -0.15625,0.109375 -0.296875,0.484375 -0.5,0.640625 -0.734375,0.640625 -0.25,0 -0.359375,-0.15625 -0.515625,-0.328125 -0.1875,-0.21875 -0.359375,-0.421875 -0.6875,-0.421875 -0.75,0 -1.203125,0.921875 -1.203125,1.140625 0,0.046875 0.03125,0.109375 0.109375,0.109375 0.09375,0 0.109375,-0.046875 0.140625,-0.109375 0.1875,-0.46875 0.765625,-0.46875 0.84375,-0.46875 0.203125,0 0.390625,0.0625 0.625,0.140625 0.40625,0.15625 0.515625,0.15625 0.765625,0.15625 -0.359375,0.421875 -1.1875,1.140625 -1.375,1.296875 l -0.90625,0.84375 C 0.78125,-0.625 0.421875,-0.0625 0.421875,0.015625 c 0,0.09375 0.109375,0.09375 0.125,0.09375 0.078125,0 0.09375,-0.015625 0.15625,-0.125 0.234375,-0.359375 0.53125,-0.625 0.859375,-0.625 0.21875,0 0.328125,0.09375 0.578125,0.375 0.15625,0.21875 0.34375,0.375 0.625,0.375 1,0 1.578125,-1.265625 1.578125,-1.53125 0,-0.046875 -0.046875,-0.109375 -0.125,-0.109375 -0.09375,0 -0.109375,0.0625 -0.140625,0.140625 C 3.84375,-0.75 3.203125,-0.5625 2.875,-0.5625 c -0.1875,0 -0.375,-0.0625 -0.578125,-0.125 -0.34375,-0.125 -0.5,-0.171875 -0.703125,-0.171875 -0.015625,0 -0.171875,0 -0.265625,0.03125 z m 0,0"
           id="path6496" />
      </symbol>
    </g>
  </defs>
  <sodipodi:namedview
     inkscape:snap-intersection-paths="true"
     inkscape:object-paths="true"
     inkscape:snap-nodes="false"
     inkscape:snap-smooth-nodes="true"
     inkscape:snap-midpoints="true"
     inkscape:window-maximized="1"
     inkscape:window-y="0"
     inkscape:window-x="0"
     inkscape:window-height="1011"
     inkscape:window-width="1920"
     showgrid="false"
     inkscape:document-rotation="0"
     inkscape:current-layer="layer1"
     inkscape:document-units="mm"
     inkscape:cy="16.793786"
     inkscape:cx="37.817586"
     inkscape:zoom="7.919596"
     inkscape:pageshadow="2"
     inkscape:pageopacity="0.0"
     borderopacity="1.0"
     bordercolor="#666666"
     pagecolor="#ffffff"
     id="base"
     inkscape:pagecheckerboard="0" />
  <metadata
     id="metadata5">
    <rdf:RDF>
      <cc:Work
         rdf:about="">
        <dc:format>image/svg+xml</dc:format>
        <dc:type
           rdf:resource="http://purl.org/dc/dcmitype/StillImage" />
      </cc:Work>
    </rdf:RDF>
  </metadata>
  <g
     transform="translate(-49.728923,-74.376556)"
     id="layer1"
     inkscape:groupmode="layer"
     inkscape:label="Layer 1">
    <path
       inkscape:original-d="m 54.251038,79.800326 c -0.0056,-0.04537 -0.01122,-0.09079 -0.01691,-0.136269 -0.0057,-0.04548 0.02006,-0.14848 0.03,-0.222804 0.0099,-0.07433 0.07656,-0.209864 0.114757,-0.314881 0.0382,-0.105017 0.09466,-0.243796 0.141908,-0.365779 0.04725,-0.121983 0.02148,-0.168719 0.03214,-0.253163 0.01066,-0.08444 0.01816,-0.08436 0.02715,-0.126622 0.009,-0.04226 0.07136,-0.03968 0.10695,-0.0596 0.03559,-0.01992 0.267086,-0.06908 0.400544,-0.103706"
       inkscape:path-effect="#path-effect939"
       id="path937"
       d="m 54.251038,79.800326 c -0.01056,-0.04463 -0.01624,-0.09041 -0.01691,-0.136269 -0.0011,-0.07515 0.01127,-0.150014 0.03,-0.222804 0.02787,-0.10831 0.06977,-0.21249 0.114757,-0.314881 0.05268,-0.119894 0.110089,-0.238746 0.141908,-0.365779 0.02071,-0.08269 0.03029,-0.16794 0.03214,-0.253163 4.76e-4,-0.02196 4.5e-4,-0.04401 0.0038,-0.06572 0.0033,-0.0217 0.01026,-0.04328 0.02336,-0.0609 0.01239,-0.01668 0.0298,-0.02912 0.04844,-0.0383 0.01864,-0.0092 0.03861,-0.01532 0.05851,-0.0213 0.132112,-0.03971 0.26576,-0.07431 0.400544,-0.103706"
       style="fill:#ffffff;stroke:#000000;stroke-width:0.160473;stroke-linecap:butt;stroke-linejoin:miter;stroke-miterlimit:4;stroke-dasharray:none;stroke-opacity:1" />
    <path
       sodipodi:nodetypes="ccsccscc"
       inkscape:original-d="m 54.700589,80.055412 c -0.102108,0.220902 0.03905,-0.09927 -0.06307,0.121614 -0.09069,-0.0468 -0.207667,-0.114751 -0.272244,-0.140579 -0.06458,-0.02583 -0.129211,-0.05171 -0.193901,-0.07765 0.320286,-0.606684 0.640516,-1.213423 0.960688,-1.820219 0.05838,0.02289 0.115629,0.04669 0.173216,0.0703 0.05808,0.02381 0.08119,0.113663 0.180705,0.132419 -0.180683,0.391038 0.146332,-0.321803 -0.0344,0.06919"
       inkscape:path-effect="#path-effect885"
       id="path883"
       d="m 54.700589,80.055412 -0.06307,0.121614 c -0.08798,-0.05198 -0.178926,-0.09894 -0.272244,-0.140579 -0.0636,-0.02838 -0.128295,-0.05429 -0.193901,-0.07765 l 0.960688,-1.820219 c 0.06013,0.01686 0.11835,0.04049 0.173216,0.0703 0.06581,0.03576 0.126777,0.08044 0.180705,0.132419 l -0.0344,0.06919"
       style="fill:#ffffff;stroke:#000000;stroke-width:0.160473;stroke-linecap:butt;stroke-linejoin:miter;stroke-miterlimit:4;stroke-dasharray:none;stroke-opacity:1" />
    <path
       id="path847"
       style="fill:#ffffff;stroke:#000000;stroke-width:0.289654;stroke-linecap:round;stroke-linejoin:round;stroke-miterlimit:4;stroke-dasharray:none;paint-order:markers stroke fill"
       d="m 52.451891,80.983357 a 2.1166611,2.1166611 0 0 0 -2.116618,2.116718 2.1166611,2.1166611 0 0 0 2.116618,2.116618 2.1166611,2.1166611 0 0 0 2.116618,-2.116618 2.1166611,2.1166611 0 0 0 -2.116618,-2.116718 z m 0.01447,0.600528 a 1.5046358,1.5046358 0 0 1 1.504614,1.504714 1.5046358,1.5046358 0 0 1 -1.504614,1.504614 1.5046358,1.5046358 0 0 1 -1.504614,-1.504614 1.5046358,1.5046358 0 0 1 1.504614,-1.504714 z" />
    <path
       id="circle851"
       style="fill:#ffffff;stroke:#000000;stroke-width:0.289654;stroke-linecap:round;stroke-linejoin:round;stroke-miterlimit:4;stroke-dasharray:none;paint-order:markers stroke fill"
       d="m 61.706859,80.983357 a 2.1166611,2.1166611 0 0 0 -2.116717,2.116718 2.1166611,2.1166611 0 0 0 2.116717,2.116618 2.1166611,2.1166611 0 0 0 2.11662,-2.116618 2.1166611,2.1166611 0 0 0 -2.11662,-2.116718 z m 0.02734,0.630265 a 1.5046579,1.5046358 0 0 1 1.504613,1.504614 1.5046579,1.5046358 0 0 1 -1.504613,1.504714 1.5046579,1.5046358 0 0 1 -1.504714,-1.504714 1.5046579,1.5046358 0 0 1 1.504714,-1.504614 z" />
    <path
       d="m 60.030616,80.962897 c -0.06156,0.0021 -0.121672,0.01798 -0.181886,0.03096 -0.05602,0.01208 -0.112541,0.02174 -0.169392,0.02897 -0.155305,0.04355 -0.29898,0.127926 -0.412645,0.242368 -0.187603,0.188887 -0.285732,0.446648 -0.375271,0.69736 -0.10737,0.300638 -0.209966,0.603556 -0.342323,0.894062 -0.04253,0.09335 -0.08868,0.187146 -0.10316,0.288697 -0.0072,0.05078 -0.0063,0.103189 0.0071,0.152695 0.0134,0.04951 0.03967,0.09602 0.07806,0.13003 0.03084,0.02733 0.06888,0.04599 0.10869,0.05661 0.03981,0.01062 0.08137,0.01342 0.122511,0.01106 0.08227,-0.0047 0.161843,-0.02944 0.241593,-0.0502 0.112314,-0.02924 0.226541,-0.05093 0.340775,-0.07143 0.128979,-0.02314 0.258259,-0.04483 0.388208,-0.0617 0.09561,-0.01241 0.191503,-0.02215 0.287369,-0.0324 0.127688,-0.01365 0.255717,-0.0282 0.384118,-0.0262 0.06515,0.001 0.130886,0.0062 0.194933,-0.0058 0.06232,-0.01164 0.121197,-0.03946 0.172156,-0.07718 0.05096,-0.03772 0.09423,-0.08509 0.130472,-0.137106 0.03717,-0.05334 0.06717,-0.111726 0.08879,-0.173041 0.07382,-0.209364 0.0457,-0.446501 -0.04832,-0.647603 -0.0585,-0.125116 -0.140694,-0.237435 -0.209973,-0.356918 -0.02788,-0.04809 -0.05371,-0.09737 -0.0795,-0.146614 -0.05341,-0.101991 -0.106834,-0.204001 -0.165301,-0.303181 -0.06332,-0.107412 -0.13247,-0.211346 -0.205106,-0.31269 -0.01902,-0.02654 -0.03851,-0.05313 -0.06347,-0.07419 -0.05127,-0.04325 -0.121375,-0.05891 -0.188411,-0.05661 z m -0.156344,0.405679 c 0.0404,0.0019 0.08029,0.01226 0.113775,0.0345 0.05015,0.03331 0.0803,0.08873 0.109021,0.14164 0.190909,0.351729 0.402873,0.69145 0.606583,1.035923 0.01698,0.02872 0.03397,0.05756 0.0471,0.08823 0.01313,0.03067 0.02241,0.06339 0.02322,0.09675 9.63e-4,0.03953 -0.01046,0.07967 -0.03428,0.111232 -0.02363,0.03132 -0.05834,0.05302 -0.09509,0.06678 -0.03675,0.01376 -0.07576,0.02018 -0.11466,0.02532 -0.09721,0.01285 -0.195137,0.01871 -0.292677,0.02875 -0.173867,0.01789 -0.346609,0.04899 -0.521223,0.05672 -0.101641,0.0045 -0.204032,9.84e-4 -0.304065,-0.01758 -0.07419,-0.01376 -0.147705,-0.03623 -0.211851,-0.07596 -0.06396,-0.03962 -0.118457,-0.09811 -0.141529,-0.169723 -0.02519,-0.07818 -0.01111,-0.163174 0.0076,-0.243142 0.02521,-0.107577 0.05844,-0.21321 0.09951,-0.315786 h 1.11e-4 c 0.06061,-0.207442 0.133131,-0.411388 0.217268,-0.610452 0.01802,-0.04262 0.0373,-0.08611 0.06999,-0.118862 0.02555,-0.0256 0.05805,-0.04332 0.09177,-0.05639 0.03373,-0.01307 0.06899,-0.02184 0.103714,-0.03195 0.06117,-0.01781 0.121825,-0.03996 0.185314,-0.04522 0.01335,-0.0011 0.02689,-0.0014 0.04036,-7.7e-4 z"
       style="fill:#ffffff;stroke:none;stroke-width:0.160473;stroke-linecap:butt;stroke-linejoin:miter;stroke-miterlimit:4;stroke-dasharray:none;stroke-opacity:1"
       id="path1024" />
    <path
       sodipodi:nodetypes="scssscssscssssssssscs"
       inkscape:original-d="m 63.209795,80.100805 c 1.148191,-0.07206 0.05563,-0.0023 0.08336,-0.0036 0.02773,-0.0013 0.04736,0.0096 0.07095,0.01426 0.02359,0.0047 0.05928,0.01952 0.08884,0.02919 0.02956,0.0097 0.02243,0.03684 0.03356,0.05518 0.01113,0.01833 -0.0025,0.06412 -0.0038,0.09609 -0.0013,0.03197 -0.03329,0.02744 -0.05002,0.04108 -0.01673,0.01364 -0.130899,0.03712 -0.196432,0.05559 -0.06554,0.01848 -1.14434,0.312819 -1.738587,0.426532 -0.594248,0.113713 -0.736136,0.28418 -1.106661,0.433781 -0.0361,-0.05168 -0.07226,-0.103409 -0.108481,-0.155198 -0.03622,-0.05179 -0.09628,-0.07973 -0.144511,-0.119679 -0.04823,-0.03995 -0.07153,-0.0074 -0.107375,-0.01114 -0.03585,-0.0038 -0.12121,0.02067 -0.1819,0.03093 -0.06069,0.01025 -0.112886,0.01938 -0.169414,0.02898 -0.05653,0.0096 -0.05961,-0.0075 -0.08951,-0.01136 -0.02989,-0.0038 -0.01825,-0.05848 -0.02746,-0.0878 -0.0092,-0.02932 0.03793,-0.140383 0.05681,-0.210659 0.01888,-0.07028 0.04387,-0.142531 0.06573,-0.213881 0.02185,-0.07135 0.0535,-0.121467 0.08016,-0.182284 1.148306,-0.07195 2.296555,-0.143953 3.444748,-0.216015 z"
       inkscape:path-effect="#path-effect869"
       id="path867"
       d="m 63.209795,80.100805 c 0.0273,-0.006 0.05564,-0.0072 0.08336,-0.0036 0.02393,0.0031 0.04725,0.0097 0.07095,0.01426 0.0155,0.003 0.03119,0.005 0.04645,0.009 0.01526,0.004 0.03026,0.01009 0.04239,0.02018 0.01678,0.01395 0.02678,0.03444 0.03356,0.05518 0.0051,0.01574 0.0087,0.03213 0.0087,0.04868 -1.8e-5,0.01655 -0.0038,0.03334 -0.01252,0.04741 -0.01151,0.01857 -0.0306,0.03108 -0.05002,0.04108 -0.06074,0.03128 -0.129204,0.04344 -0.196432,0.05559 -0.587659,0.106216 -1.170851,0.241328 -1.738587,0.426532 -0.376891,0.122947 -0.746612,0.267868 -1.106661,0.433781 -0.03302,-0.05384 -0.06927,-0.105691 -0.108481,-0.155198 -0.01969,-0.02486 -0.04022,-0.04923 -0.06389,-0.07035 -0.02366,-0.02112 -0.05064,-0.03899 -0.08062,-0.04933 -0.03424,-0.01181 -0.07122,-0.01343 -0.107375,-0.01114 -0.06144,0.0039 -0.121572,0.01867 -0.1819,0.03093 -0.05615,0.01141 -0.112722,0.02066 -0.169414,0.02898 -0.01532,0.0022 -0.03078,0.0044 -0.04624,0.0035 -0.01546,-9.53e-4 -0.03109,-0.0053 -0.04327,-0.01484 -0.01256,-0.0099 -0.0206,-0.02468 -0.02452,-0.04017 -0.0039,-0.01548 -0.004,-0.03169 -0.0029,-0.04763 0.005,-0.07279 0.03376,-0.141438 0.05681,-0.210659 0.02357,-0.07077 0.04139,-0.143374 0.06573,-0.213881 0.02169,-0.06281 0.04853,-0.123845 0.08016,-0.182284 l 3.444748,-0.216015 z"
       style="fill:#ffffff;stroke:#000000;stroke-width:0.160473;stroke-linecap:butt;stroke-linejoin:miter;stroke-miterlimit:4;stroke-dasharray:none;stroke-opacity:1" />
    <path
       sodipodi:nodetypes="csssssssscssscssscssssssssssssssssssssssssssssssscsssssssssssssssc"
       inkscape:original-d="m 54.45296,79.927566 c 0.08261,0.04386 0.165173,0.08767 0.247675,0.131419 0.0825,0.04375 0.161803,0.114627 0.24262,0.171856 0.08082,0.05723 0.15982,0.368904 0.230528,0.508691 0.07071,0.139787 0.07924,0.337029 0.118782,0.50546 0.03954,0.168429 0.128106,0.556061 0.192075,0.834007 0.06397,0.277946 0.117997,0.390945 0.176911,0.586333 0.05891,0.195387 0.19887,0.225828 0.29822,0.338657 0.09935,0.112829 0.417904,0.138216 0.62677,0.207239 0.208867,0.06902 0.385907,0.04049 0.535804,0.06065 0.04471,0.03797 0.08935,0.07587 0.133947,0.113728 0.04459,0.03785 0.246046,0.153379 0.368985,0.229984 0.122938,0.0766 0.26458,0.04555 0.396785,0.06824 0.132206,0.02269 0.711903,-0.158822 0.981861,-0.238319 0.538056,-0.0279 1.05743,-0.170263 1.595384,-0.197434 0.537955,-0.02717 0.480292,6.42e-4 0.720351,8.77e-4 0.24006,2.36e-4 0.239397,0.0054 0.359009,0.008 0.119613,0.0026 0.09442,5.13e-4 0.141548,7.06e-4 0.04713,1.7e-4 0.06686,-0.0463 0.100211,-0.06953 0.03335,-0.02323 0.01887,-0.109709 0.02822,-0.164649 0.0094,-0.05494 -0.132389,-0.07913 -0.198669,-0.118774 -0.06628,-0.03965 -0.156881,-0.01815 -0.235408,-0.02731 -0.07852,-0.0092 -0.154354,-0.0839 -0.231616,-0.125934 -0.07726,-0.04203 -0.09781,-0.141915 -0.146797,-0.212957 -0.04899,-0.07104 -0.269109,-0.436321 -0.403748,-0.682348 -0.134639,-0.246027 -0.227552,-0.404797 -0.341413,-0.60728 -0.11386,-0.202484 -0.06605,-0.08323 -0.108481,-0.155198 -0.04243,-0.07196 -0.04228,-0.04944 -0.0635,-0.07425 -0.02123,-0.02481 -0.05395,-0.03023 -0.08101,-0.04543 -0.02706,-0.0152 -0.07153,-0.0074 -0.107376,-0.01113 -0.03585,-0.0038 -0.12121,0.02067 -0.1819,0.03093 -0.06069,0.01025 -0.112886,0.01938 -0.169414,0.02898 -0.05653,0.0096 -0.05961,-0.0075 -0.08951,-0.01136 -0.02989,-0.0038 -0.01696,-0.02594 -0.02552,-0.03899 -0.0086,-0.01305 0.0064,-0.06436 0.0095,-0.09663 0.0031,-0.03227 0.13559,-0.394868 0.2033,-0.592386 0.06771,-0.197519 0.12893,-0.170785 0.19331,-0.256262 0.06438,-0.08548 0.239291,-0.112625 0.358851,-0.169022 0.119561,-0.0564 0.07126,-0.0223 0.106803,-0.03354 0.03554,-0.01124 0.01845,-0.0526 0.02758,-0.07899 0.0091,-0.02639 -0.02227,-0.06876 -0.03349,-0.103229 -0.01122,-0.03447 -0.05981,-0.02301 -0.0898,-0.03459 -0.02999,-0.01159 -0.302376,0.01585 -0.45365,0.02369 -0.151272,0.0078 -0.24941,0.05806 -0.374199,0.08701 -0.124791,0.02894 -0.238262,0.184215 -0.357478,0.276237 -0.119216,0.09202 -0.300872,0.483334 -0.451393,0.724916 -0.150521,0.241583 -0.153342,0.389574 -0.230098,0.584275 -0.07676,0.194701 -0.120597,0.315013 -0.180981,0.472435 -0.06038,0.157422 -0.0142,0.20244 -0.02139,0.303575 -0.0072,0.101134 -0.0022,0.08434 -0.0034,0.126419 -0.04333,0.03432 -0.09283,0.04591 -0.185568,0.102756 -0.09273,0.05685 -0.157342,0.162293 -0.258282,0.170383 -0.100941,0.0081 -0.337607,0.01995 -0.525376,0.0241 -0.187768,0.0041 -0.489394,0.01211 -0.563475,0.01228 -0.07408,1.72e-4 -0.160733,0.01887 -0.222417,3.42e-4 -0.06168,-0.01853 -0.13315,0.0016 -0.185222,-0.05576 -0.05207,-0.05741 -0.137263,-0.122146 -0.156387,-0.172394 -0.01912,-0.05025 0.06127,0.337668 -0.05754,-0.150913 -0.118809,-0.488581 -0.299932,-1.223635 -0.356597,-1.465912 -0.05667,-0.242278 -0.137417,-0.584503 -0.170166,-0.727003 -0.03275,-0.1425 -0.08899,-0.209639 -0.09842,-0.427671 -0.0094,-0.218031 -0.03845,-0.575841 -0.02844,-0.654264 0.01,-0.07842 0.02762,-0.206824 0.02984,-0.23544 0.0022,-0.02862 0.01523,-0.0567 0.0065,-0.08602 -0.0087,-0.02932 -0.05172,-0.110886 -0.06556,-0.142666 -0.01383,-0.03178 -0.133002,-0.0821 -0.146946,-0.113991"
       inkscape:path-effect="#path-effect857"
       id="path855"
       d="m 54.45296,79.927566 c 0.08357,0.04187 0.166157,0.08569 0.247675,0.131419 0.08675,0.04867 0.173439,0.100381 0.24262,0.171856 0.06553,0.06771 0.113159,0.151109 0.148624,0.238406 0.03547,0.0873 0.05927,0.178818 0.0819,0.270285 0.04157,0.168011 0.07953,0.336891 0.118782,0.50546 0.0647,0.277853 0.13292,0.554921 0.192075,0.834007 0.04248,0.200404 0.08141,0.405099 0.176911,0.586333 0.07083,0.134407 0.172555,0.253276 0.29822,0.338657 0.183559,0.124716 0.407507,0.173009 0.62677,0.207239 0.177643,0.02773 0.356456,0.04797 0.535804,0.06065 0.04379,0.03891 0.08845,0.07683 0.133947,0.113728 0.113051,0.09168 0.233035,0.177993 0.368985,0.229984 0.125976,0.04818 0.261943,0.06534 0.396785,0.06824 0.340525,0.0073 0.682585,-0.0757 0.981861,-0.238319 0.52276,-0.122269 1.058589,-0.18858 1.595384,-0.197434 0.24009,-0.004 0.480243,0.0035 0.720351,8.77e-4 0.119774,-0.0013 0.239952,-0.0052 0.359009,0.008 0.0472,0.0052 0.09568,0.01301 0.141548,7.06e-4 0.03999,-0.01073 0.07518,-0.03655 0.100211,-0.06953 0.01761,-0.02321 0.03054,-0.05018 0.036,-0.0788 0.0055,-0.02862 0.0033,-0.05888 -0.0078,-0.08585 -0.01532,-0.03742 -0.04683,-0.06664 -0.08268,-0.08534 -0.03585,-0.01871 -0.07595,-0.02777 -0.115988,-0.03343 -0.07827,-0.01108 -0.158292,-0.0099 -0.235408,-0.02731 -0.08686,-0.01958 -0.168502,-0.06312 -0.231616,-0.125934 -0.06131,-0.06101 -0.103786,-0.137912 -0.146797,-0.212957 -0.131422,-0.229305 -0.275334,-0.451345 -0.403748,-0.682348 -0.112869,-0.203038 -0.213852,-0.413136 -0.341413,-0.60728 -0.03466,-0.05276 -0.07123,-0.104238 -0.108481,-0.155198 -0.01926,-0.02635 -0.03891,-0.05279 -0.0635,-0.07425 -0.02349,-0.02051 -0.05125,-0.03612 -0.08101,-0.04543 -0.03453,-0.0108 -0.07125,-0.01306 -0.107376,-0.01113 -0.06148,0.0033 -0.121617,0.01839 -0.1819,0.03093 -0.0561,0.01167 -0.11265,0.02115 -0.169414,0.02898 -0.0153,0.0021 -0.03074,0.0041 -0.04616,0.0031 -0.01541,-0.001 -0.03097,-0.0052 -0.04335,-0.01446 -0.01268,-0.0095 -0.02129,-0.02375 -0.02552,-0.03899 -0.0044,-0.0158 -0.0043,-0.03258 -0.0019,-0.04881 0.0024,-0.01623 0.0069,-0.03205 0.01143,-0.04782 0.05735,-0.201186 0.105519,-0.407443 0.2033,-0.592386 0.05026,-0.09507 0.113712,-0.183951 0.19331,-0.256262 0.09948,-0.09037 0.225309,-0.15388 0.358851,-0.169022 0.01894,-0.0021 0.03807,-0.0033 0.05662,-0.0077 0.01855,-0.0044 0.03679,-0.01224 0.05019,-0.02581 0.01003,-0.01016 0.01693,-0.02313 0.02116,-0.03677 0.0042,-0.01363 0.0059,-0.02795 0.0064,-0.04222 6.75e-4,-0.01863 -6.1e-4,-0.03748 -0.0057,-0.05541 -0.0051,-0.01793 -0.01425,-0.03495 -0.02775,-0.04782 -0.01181,-0.01125 -0.0266,-0.01903 -0.04204,-0.02427 -0.01545,-0.0052 -0.0316,-0.008 -0.04776,-0.01032 -0.150481,-0.02122 -0.303237,0.002 -0.45365,0.02369 -0.127146,0.01834 -0.256253,0.0361 -0.374199,0.08701 -0.139346,0.06014 -0.255774,0.163584 -0.357478,0.276237 -0.191626,0.212257 -0.33907,0.461938 -0.451393,0.724916 -0.08223,0.192515 -0.146129,0.392513 -0.230098,0.584275 -0.06781,0.154868 -0.149352,0.306355 -0.180981,0.472435 -0.019,0.09978 -0.01937,0.202021 -0.02139,0.303575 -8.38e-4,0.04215 -0.002,0.08429 -0.0034,0.126419 -0.06501,0.02809 -0.12726,0.06256 -0.185568,0.102756 -0.08512,0.05868 -0.16303,0.130183 -0.258282,0.170383 -0.08161,0.03444 -0.17178,0.04389 -0.260348,0.04265 -0.08857,-0.0012 -0.17664,-0.01277 -0.265028,-0.01855 -0.1876,-0.01226 -0.37579,0.0014 -0.563475,0.01228 -0.0741,0.0043 -0.148603,0.0082 -0.222417,3.42e-4 -0.0646,-0.0068 -0.129122,-0.023 -0.185222,-0.05576 -0.06792,-0.03966 -0.120673,-0.102317 -0.156387,-0.172394 -0.02448,-0.04802 -0.04136,-0.0995 -0.05754,-0.150913 -0.151001,-0.479879 -0.248666,-0.97455 -0.356597,-1.465912 -0.0534,-0.243098 -0.109377,-0.485647 -0.170166,-0.727003 -0.03574,-0.141889 -0.07317,-0.283545 -0.09842,-0.427671 -0.03777,-0.21564 -0.04795,-0.436212 -0.02844,-0.654264 0.0071,-0.07881 0.01795,-0.157217 0.02984,-0.23544 0.0043,-0.0285 0.0088,-0.05729 0.0065,-0.08602 -0.0043,-0.05301 -0.03142,-0.101881 -0.06556,-0.142666 -0.04009,-0.0479 -0.09058,-0.08707 -0.146946,-0.113991"
       style="fill:#ffffff;stroke:#000000;stroke-width:0.160473;stroke-linecap:butt;stroke-linejoin:miter;stroke-miterlimit:4;stroke-dasharray:none;stroke-opacity:1" />
    <path
       sodipodi:nodetypes="cccc"
       inkscape:original-d="m 60.348222,79.298663 c -0.05859,0.165232 0.0047,0.134113 -0.05405,0.299233 l -0.416608,0.01481 c 0.08094,-0.196382 0.104132,-0.233325 0.184961,-0.42982"
       inkscape:path-effect="#path-effect927"
       id="path925"
       d="m 60.348222,79.298663 -0.05405,0.299233 -0.416608,0.01481 0.184961,-0.42982"
       style="fill:#ffffff;stroke:#000000;stroke-width:0.160473;stroke-linecap:butt;stroke-linejoin:miter;stroke-miterlimit:4;stroke-dasharray:none;stroke-opacity:1" />
    <path
       inkscape:original-d="m 60.198834,79.225618 c 0.04006,0.140861 0.144691,0.416103 -0.111567,-0.05933 -0.02002,-0.03715 -0.198002,-0.02123 -0.297087,-0.03194 -0.09909,-0.0107 -0.152489,-0.0028 -0.228818,-0.0042 -0.07633,-0.0015 -0.102577,-0.01293 -0.15395,-0.01947 -0.05137,-0.0065 -0.05853,-0.108808 -0.08788,-0.163297 -0.02935,-0.05449 0.06262,-0.138957 0.09384,-0.20852 0.03122,-0.06956 0.115581,-0.09674 0.173287,-0.145198 0.0577,-0.04846 0.240298,-0.034 0.360362,-0.05109 0.120065,-0.01708 0.267942,0.07764 0.401828,0.116381 0.133886,0.03874 0.308018,0.04377 0.461941,0.06557 0.153923,0.0218 0.221604,-0.0052 0.332322,-0.0078 0.110718,-0.0027 0.11219,0.01054 0.1682,0.01572 0.05601,0.0052 0.11002,0.02724 0.164947,0.04078 0.05493,0.01354 0.02492,0.08076 0.03729,0.121053 0.01237,0.04029 -0.02078,0.04798 -0.03125,0.07189 -0.01048,0.02391 -0.06812,0.07242 -0.102269,0.108543 -0.03415,0.03612 -0.04894,0.0817 -0.07349,0.122473 -0.02455,0.04077 -0.05838,0.08897 -0.08765,0.133377 -0.02927,0.0444 -0.118492,0.04685 -0.177822,0.07019 -0.05933,0.02334 -0.240764,-0.01116 -0.361232,-0.01682 -0.115397,-0.0054 -0.436234,0.100063 -0.452072,-0.137935 -4.68e-4,-0.007 -0.02173,-0.01177 -0.02893,-0.02032"
       inkscape:path-effect="#path-effect931"
       id="path929"
       d="m 60.198834,79.225618 c -0.03384,-0.02537 -0.07162,-0.04546 -0.111567,-0.05933 -0.09452,-0.03282 -0.197043,-0.03005 -0.297087,-0.03194 -0.07628,-0.0014 -0.152541,-0.0058 -0.228818,-0.0042 -0.02615,5.49e-4 -0.05235,0.0018 -0.07843,-1.88e-4 -0.02608,-0.002 -0.05225,-0.0073 -0.07552,-0.01928 -0.029,-0.01489 -0.05244,-0.03974 -0.06732,-0.06874 -0.01488,-0.029 -0.02138,-0.06198 -0.02056,-0.09456 9.8e-4,-0.03883 0.01215,-0.07699 0.02917,-0.111911 0.01702,-0.03492 0.03979,-0.06677 0.06467,-0.09661 0.04857,-0.05825 0.106202,-0.10982 0.173287,-0.145198 0.109134,-0.05755 0.238324,-0.06924 0.360362,-0.05109 0.1381,0.02054 0.26791,0.07689 0.401828,0.116381 0.149727,0.04415 0.30585,0.06732 0.461941,0.06557 0.110852,-0.0012 0.221695,-0.01497 0.332322,-0.0078 0.0562,0.0036 0.111965,0.01266 0.1682,0.01572 0.02889,0.0016 0.05797,0.0016 0.08649,0.0064 0.02852,0.0049 0.05692,0.01502 0.07846,0.03434 0.01642,0.01473 0.02822,0.03436 0.03442,0.05554 0.0062,0.02117 0.0069,0.04382 0.0029,0.06552 -0.0048,0.0259 -0.01609,0.05036 -0.03125,0.07189 -0.02865,0.0407 -0.07013,0.07054 -0.102269,0.108543 -0.03082,0.03645 -0.05243,0.07963 -0.07349,0.122473 -0.02362,0.04805 -0.04788,0.09753 -0.08765,0.133377 -0.04808,0.04333 -0.113639,0.06184 -0.177822,0.07019 -0.119923,0.0156 -0.24153,3.89e-4 -0.361232,-0.01682 -0.15727,-0.02261 -0.319293,-0.05067 -0.452072,-0.137935 -0.0099,-0.0065 -0.0195,-0.01325 -0.02893,-0.02032"
       style="fill:#ffffff;stroke:#000000;stroke-width:0.160473;stroke-linecap:butt;stroke-linejoin:miter;stroke-miterlimit:4;stroke-dasharray:none;stroke-opacity:1"
       sodipodi:nodetypes="csscssssssscssccssssssc" />
    <path
       inkscape:original-d="m 53.479236,80.897016 c -0.228446,-0.156788 -0.196383,-0.08083 -0.294659,-0.121329 -0.09828,-0.0405 -0.188898,-0.05471 -0.283432,-0.08215 -0.09454,-0.02744 -0.147876,-0.01473 -0.221899,-0.02218 -0.07402,-0.0075 -0.138346,-0.01485 -0.207604,-0.02236 -0.06926,-0.0075 -0.1351,-0.04051 -0.202735,-0.06085 -0.06763,-0.02034 -0.04254,-0.02323 -0.06389,-0.03493 -0.02136,-0.0117 -0.0073,-0.01295 -0.01097,-0.01952 -0.0037,-0.0066 0.04429,-0.03447 0.06636,-0.05179 0.02206,-0.01732 0.162628,-0.005 0.243857,-0.0076 0.08123,-0.0026 0.624249,0.128481 0.936288,0.192637 0.31204,0.06416 0.349376,0.202897 0.523979,0.304261 0.174603,0.101363 0.560793,0.721113 0.841103,1.081585 0.280312,0.360472 0.04541,0.120796 0.06804,0.181109 0.02262,0.06031 0.0056,0.02616 0.0083,0.03915 0.0027,0.01299 -0.01037,0.02283 -0.01565,0.03416 -0.0053,0.01133 -0.03357,-0.02096 -0.05045,-0.03152 -0.01687,-0.01056 -0.05422,-0.05167 -0.08142,-0.07759 -0.0272,-0.02592 -0.04724,-0.06487 -0.07095,-0.09739 -0.02371,-0.03252 -0.131716,-0.241315 -0.197659,-0.362058 -0.06594,-0.120744 -0.200902,-0.247579 -0.301438,-0.371452 -0.100536,-0.123875 -0.456721,-0.313406 -0.685167,-0.470194 z"
       inkscape:path-effect="#path-effect935"
       id="path933"
       d="m 53.479236,80.897016 c -0.09668,-0.04406 -0.194987,-0.08454 -0.294659,-0.121329 -0.09241,-0.03411 -0.186408,-0.06515 -0.283432,-0.08215 -0.07326,-0.01284 -0.147666,-0.01757 -0.221899,-0.02218 -0.06952,-0.0043 -0.139318,-0.0086 -0.207604,-0.02236 -0.06922,-0.01396 -0.136088,-0.03751 -0.202735,-0.06085 -0.02315,-0.0081 -0.04731,-0.01684 -0.06389,-0.03493 -0.0051,-0.0056 -0.0094,-0.01212 -0.01097,-0.01952 -0.0016,-0.0078 7.8e-5,-0.01607 0.004,-0.023 0.0039,-0.0069 0.0099,-0.01255 0.01668,-0.01666 0.0136,-0.0082 0.02991,-0.01041 0.04571,-0.01213 0.08091,-0.0088 0.162499,-0.0098 0.243857,-0.0076 0.32034,0.0088 0.640782,0.06866 0.936288,0.192637 0.186737,0.07834 0.362663,0.181845 0.523979,0.304261 0.367862,0.279156 0.658253,0.657537 0.841103,1.081585 0.02555,0.05925 0.04907,0.119439 0.06804,0.181109 0.0039,0.01279 0.0077,0.02579 0.0083,0.03915 3.01e-4,0.0067 -2.15e-4,0.01346 -0.0026,0.01966 -0.0024,0.0062 -0.0069,0.01179 -0.01301,0.0145 -0.0049,0.0022 -0.01063,0.0024 -0.01586,0.0011 -0.0052,-0.0013 -0.01002,-0.0041 -0.01417,-0.0076 -0.0083,-0.0069 -0.01397,-0.01637 -0.02042,-0.02503 -0.02244,-0.03011 -0.05475,-0.05115 -0.08142,-0.07759 -0.0286,-0.02836 -0.05049,-0.06269 -0.07095,-0.09739 -0.06986,-0.118461 -0.125994,-0.244683 -0.197659,-0.362058 -0.08331,-0.136451 -0.187,-0.259811 -0.301438,-0.371452 -0.19925,-0.194379 -0.43213,-0.354193 -0.685167,-0.470194 z"
       style="fill:none;stroke:#000000;stroke-width:0.160473;stroke-linecap:butt;stroke-linejoin:miter;stroke-miterlimit:4;stroke-dasharray:none;stroke-opacity:1" />
    <path
       inkscape:transform-center-y="-0.94035362"
       inkscape:transform-center-x="-0.58655229"
       sodipodi:nodetypes="sccsssssccss"
       inkscape:original-d="m 53.660254,81.195471 c -0.04619,-0.02073 -0.09239,-0.04147 -0.138595,-0.06222 -0.262173,0.587279 -0.530927,1.043645 -0.793217,1.630815 -0.05239,0.0503 -0.213742,0.1213 -0.246084,0.142003 -0.03234,0.0207 -0.118365,-0.01701 -0.0972,0.06194 0.02116,0.07895 0.04503,0.242288 0.0633,0.236691 0.01827,-0.0056 0.0071,-4.06e-4 0.05465,-0.01695 0.04756,-0.01655 0.08436,-0.03037 0.142518,-0.04981 0.05816,-0.01945 0.225166,-0.03554 0.283209,-0.0551 0.309109,-0.647221 0.605835,-1.156002 0.913523,-1.805654 0.309045,0.298396 -0.12138,-0.05446 -0.182098,-0.08171 z"
       inkscape:path-effect="#path-effect907"
       id="path905"
       d="m 53.660254,81.195471 -0.138595,-0.06222 -0.793217,1.630815 c -0.08008,0.05062 -0.162192,0.098 -0.246084,0.142003 -0.03413,0.0179 -0.06906,0.03559 -0.0972,0.06194 -0.01964,0.01839 -0.03563,0.0409 -0.04519,0.06606 -0.0096,0.02516 -0.01251,0.05299 -0.007,0.07934 0.0055,0.02635 0.01957,0.05106 0.04039,0.06811 0.02082,0.01705 0.04838,0.02605 0.07514,0.02319 0.01903,-0.002 0.03693,-0.0097 0.05465,-0.01695 0.04661,-0.01904 0.09422,-0.03561 0.142518,-0.04981 0.0924,-0.02716 0.187361,-0.04564 0.283209,-0.0551 l 0.913523,-1.805654 -0.182098,-0.08171 z"
       style="fill:#ffffff;stroke:#000000;stroke-width:0.160473;stroke-linecap:butt;stroke-linejoin:miter;stroke-miterlimit:4;stroke-dasharray:none;stroke-opacity:1" />
    <path
       sodipodi:nodetypes="ssscccsssccs"
       inkscape:original-d="m 54.139,80.524627 c 0.0299,-0.03824 0.0484,-0.09757 0.08952,-0.114884 0.04112,-0.01732 0.08681,-0.05846 0.123179,-0.05213 0.03637,0.0063 0.07265,0.01092 0.108924,0.01883 0.0378,-0.07878 0.07936,-0.154849 0.117047,-0.233742 l -0.345827,-0.163936 c -0.02973,0.04256 -0.07307,0.111783 -0.102915,0.154233 -0.02984,0.04245 -0.05807,0.06652 -0.08718,0.09969 -0.02912,0.03317 -0.04284,0.07138 -0.06434,0.10698 -0.0215,0.0356 -0.280517,0.544524 -0.414631,0.809671 l 0.188537,0.08699 c 0.127654,-0.233266 0.357801,-0.673458 0.387696,-0.711697 z"
       inkscape:path-effect="#path-effect899"
       id="path897"
       d="m 54.139,80.524627 c 0.01979,-0.04487 0.05085,-0.08472 0.08952,-0.114884 0.03562,-0.02778 0.07825,-0.04748 0.123179,-0.05213 0.03711,-0.0038 0.07525,0.0028 0.108924,0.01883 l 0.117047,-0.233742 -0.345827,-0.163936 c -0.02775,0.0554 -0.06241,0.107344 -0.102915,0.154233 -0.02887,0.03342 -0.06073,0.06432 -0.08718,0.09969 -0.02495,0.03336 -0.04474,0.07023 -0.06434,0.10698 -0.142709,0.267555 -0.280945,0.537495 -0.414631,0.809671 l 0.188537,0.08699 0.387696,-0.711697 z"
       style="fill:#ffffff;stroke:#000000;stroke-width:0.160473;stroke-linecap:butt;stroke-linejoin:miter;stroke-miterlimit:4;stroke-dasharray:none;stroke-opacity:1" />
    <path
       sodipodi:nodetypes="csssssscsssc"
       inkscape:original-d="m 55.429449,77.578187 c 0.02176,0.02003 0.03872,0.05068 0.06511,0.05993 0.02639,0.0093 0.04044,-0.0012 0.07899,0.02758 0.03855,0.02876 0.0982,0.04336 0.115485,0.08609 0.01728,0.04273 0.06967,0.09496 0.05168,0.128017 -0.01799,0.03305 -0.0314,0.06468 -0.05414,0.09899 -0.02274,0.03431 -0.04094,0.105413 -0.06838,0.102747 -0.02745,-0.0027 -0.05434,-0.0048 -0.08251,-0.0082 -0.09281,-0.04632 -0.185685,-0.09269 -0.278611,-0.139122 -0.09293,-0.04643 -0.100607,-0.04512 -0.150995,-0.06777 -0.05039,-0.02265 -0.0035,-0.181003 -0.0053,-0.271589 -0.0018,-0.09059 0.08727,-0.07434 0.123687,-0.110605"
       inkscape:path-effect="#path-effect955"
       id="path953"
       d="m 55.429449,77.578187 c 0.01527,0.02573 0.03821,0.04684 0.06511,0.05993 0.0251,0.01221 0.053,0.01739 0.07899,0.02758 0.04512,0.01769 0.08316,0.04999 0.115485,0.08609 0.01591,0.01777 0.0308,0.0368 0.04088,0.05843 0.01008,0.02162 0.01514,0.04613 0.0108,0.06959 -0.0034,0.01862 -0.01258,0.0357 -0.02289,0.05158 -0.01031,0.01588 -0.02195,0.03092 -0.03125,0.04741 -0.01027,0.01822 -0.01755,0.03796 -0.02737,0.05642 -0.0098,0.01846 -0.02277,0.03609 -0.041,0.04633 -0.01283,0.0072 -0.0279,0.01035 -0.04255,0.0089 -0.01464,-0.0015 -0.0288,-0.0075 -0.03996,-0.0171 -0.0844,-0.06123 -0.178951,-0.108444 -0.278611,-0.139122 -0.02663,-0.0082 -0.05365,-0.01524 -0.07963,-0.02529 -0.02598,-0.01006 -0.05112,-0.02334 -0.07136,-0.04248 -0.03579,-0.03385 -0.05345,-0.08437 -0.0524,-0.133622 0.0011,-0.04925 0.0196,-0.09709 0.0471,-0.137967 0.0312,-0.04637 0.07414,-0.08476 0.123687,-0.110605"
       style="fill:#ffffff;stroke:#000000;stroke-width:0.160473;stroke-linecap:butt;stroke-linejoin:miter;stroke-miterlimit:4;stroke-dasharray:none;stroke-opacity:1" />
    <path
       inkscape:original-d="m 55.804336,77.251263 c 0.02193,0.03314 0.0438,0.06622 0.06561,0.09924 0.02181,0.03302 0.04584,0.0892 0.06868,0.109108 0.02284,0.0199 0.107353,-7.06e-4 0.137079,-0.0011 0.02972,-4.5e-4 0.157425,-0.01045 0.195428,-0.01576 0.038,-0.0053 0.01622,-0.08988 0.02424,-0.110299 0.008,-0.02041 -0.03877,-0.05425 -0.05823,-0.08147 -0.01947,-0.02721 -0.158961,-0.118094 -0.197902,-0.177226"
       inkscape:path-effect="#path-effect985"
       id="path983"
       d="m 55.804336,77.251263 c 0.02765,0.02874 0.05,0.06255 0.06561,0.09924 0.0086,0.02023 0.01519,0.04134 0.02521,0.06091 0.01001,0.01957 0.02402,0.03795 0.04347,0.0482 0.02056,0.01083 0.04501,0.01148 0.06809,0.0088 0.02308,-0.0027 0.04578,-0.0086 0.06899,-0.0099 0.03351,-0.0019 0.06675,0.0058 0.100237,0.0081 0.01674,0.0011 0.0337,8.49e-4 0.05011,-0.0026 0.01642,-0.0035 0.03233,-0.01029 0.04508,-0.0212 0.01521,-0.01302 0.02533,-0.03155 0.02924,-0.05119 0.0039,-0.01963 0.0018,-0.04027 -0.005,-0.05911 -0.01135,-0.03168 -0.03477,-0.05735 -0.05823,-0.08147 -0.06179,-0.06353 -0.12797,-0.122788 -0.197902,-0.177226"
       style="fill:#ffffff;stroke:#000000;stroke-width:0.160473;stroke-linecap:butt;stroke-linejoin:miter;stroke-miterlimit:4;stroke-dasharray:none;stroke-opacity:1"
       sodipodi:nodetypes="csscscsc" />
    <path
       sodipodi:nodetypes="ssssscssssssssscsssssss"
       d="m 59.874269,81.368576 c 0.0404,0.0019 0.08029,0.01226 0.113775,0.0345 0.05015,0.03331 0.0803,0.08873 0.109021,0.14164 0.190909,0.351729 0.402873,0.69145 0.606583,1.035923 0.01698,0.02872 0.03397,0.05756 0.0471,0.08823 0.01313,0.03067 0.02241,0.06339 0.02322,0.09675 9.62e-4,0.03953 -0.01046,0.07967 -0.03428,0.111233 -0.02363,0.03132 -0.05834,0.05302 -0.09509,0.06678 -0.03675,0.01376 -0.07576,0.02018 -0.11466,0.02532 -0.09721,0.01285 -0.195137,0.01871 -0.292676,0.02875 -0.173868,0.01789 -0.34661,0.04899 -0.521224,0.05672 -0.10164,0.0045 -0.204032,9.79e-4 -0.304065,-0.01758 -0.07419,-0.01376 -0.147705,-0.03623 -0.211851,-0.07596 -0.06396,-0.03962 -0.118457,-0.09811 -0.141529,-0.169724 -0.02519,-0.07818 -0.01111,-0.163173 0.0076,-0.243142 0.02521,-0.107577 0.05844,-0.21321 0.10934,-0.368218 0.0509,-0.15501 0.123416,-0.358955 0.207554,-0.558019 0.01802,-0.04262 0.0373,-0.08611 0.06999,-0.118862 0.02555,-0.0256 0.05805,-0.04332 0.09177,-0.05639 0.03373,-0.01307 0.06899,-0.02184 0.103714,-0.03195 0.06117,-0.01781 0.121825,-0.03996 0.185314,-0.04522 0.01335,-0.0011 0.02689,-0.0014 0.04036,-7.76e-4 z"
       style="fill:none;stroke:#000000;stroke-width:0.160473;stroke-linecap:butt;stroke-linejoin:miter;stroke-miterlimit:4;stroke-dasharray:none;stroke-opacity:1"
       id="path1017" />
    <path
       style="fill:#ffffff;stroke:#000000;stroke-width:0.149775;stroke-linecap:butt;stroke-linejoin:miter;stroke-miterlimit:4;stroke-dasharray:none;stroke-opacity:1"
       d="m 59.981278,81.7417 c -0.112521,0.144937 -0.206788,0.30403 -0.279872,0.472335 -0.05934,0.136654 -0.104734,0.279358 -0.135281,0.425175 -0.02791,0.133239 -0.04343,0.269072 -0.0463,0.405173 0.07987,0.0068 0.160217,0.0079 0.240253,0.0035 0.08754,-0.0048 0.174642,-0.01559 0.261792,-0.0252 l 0.28839,-0.03181 c 0.01375,-0.07565 0.0304,-0.150785 0.04989,-0.225169 0.01921,-0.07331 0.04123,-0.146043 0.07054,-0.21593 0.03133,-0.07471 0.07093,-0.145943 0.117839,-0.211988 l -0.430923,-0.755381 -0.136336,0.159318 z"
       id="path7696"
       inkscape:path-effect="#path-effect7698"
       inkscape:original-d="m 59.981278,81.7417 c -0.09323,0.157501 -0.234836,0.330553 -0.279872,0.472335 -0.04504,0.141782 -0.12065,0.310506 -0.135281,0.425175 -0.01463,0.114669 -0.03155,0.290618 -0.0463,0.405173 0,0 0.156443,0.0069 0.240253,0.0035 0.08381,-0.0034 0.261792,-0.0252 0.261792,-0.0252 l 0.28839,-0.03181 c 0.01004,-0.05766 0.03997,-0.167396 0.04989,-0.225169 0.0099,-0.05777 0.04708,-0.143897 0.07054,-0.21593 0.02346,-0.07203 0.09179,-0.159292 0.117839,-0.211988 l -0.430923,-0.755381 c -0.04539,0.05316 -0.0431,0.0018 -0.136336,0.159318 z"
       sodipodi:nodetypes="sssczccssccs" />
    <path
       style="fill:#ffffff;stroke:#000000;stroke-width:0.160473;stroke-linecap:butt;stroke-linejoin:miter;stroke-miterlimit:4;stroke-dasharray:none;stroke-opacity:1"
       d="m 55.180635,78.149802 0.105598,-0.216703 0.259313,0.135908 -0.09772,0.229491 z"
       id="path13888" />
    <path
       inkscape:original-d="m 55.662234,76.915721 c -0.113923,0.08659 0.01964,0.0033 -0.07001,0.115279 -0.08966,0.112014 -0.219384,0.271432 -0.26914,0.335871 -0.04976,0.06444 -0.144372,0.128089 -0.149438,0.193147 -0.0051,0.06506 -0.07981,0.191602 -0.01537,0.195004 0.06444,0.0034 0.291453,0.109911 0.303056,0.08122 0.0116,-0.02869 0.02592,-0.06473 0.03464,-0.08623 0.0087,-0.0215 -0.01426,0.0073 0.02598,-0.06467 0.04024,-0.07195 0.05952,-0.139032 0.12055,-0.216011 0.06103,-0.07698 0.133612,-0.168576 0.182909,-0.231107 0.0493,-0.06253 0.09854,-0.125119 0.14772,-0.187764 0.04918,-0.06264 0.02362,-0.0205 0.03535,-0.03083 0.01173,-0.01033 0.04389,-0.01957 0.06575,-0.02944 0.02186,-0.0099 0.08827,0.0037 0.132323,0.0055 0.04405,0.0018 0.09783,0.006 0.146665,0.0088 0.04883,0.0029 0.0091,-0.08695 0.06851,-0.09492 0.05942,-0.008 2.1e-4,-0.08097 2.35e-4,-0.121533 2e-5,-0.04057 -0.07362,-0.07764 -0.110513,-0.11654 -0.03689,-0.0389 -0.124142,-0.02218 -0.186298,-0.03336 -0.06216,-0.01117 -0.08081,0.01182 -0.121305,0.01764 -0.04049,0.0058 -0.227677,0.173356 -0.3416,0.259949 z"
       inkscape:path-effect="#path-effect959"
       id="path957"
       d="m 55.662234,76.915721 c -0.02202,0.03921 -0.04537,0.07766 -0.07001,0.115279 -0.07871,0.120174 -0.170389,0.231537 -0.26914,0.335871 -0.05625,0.05943 -0.116078,0.118425 -0.149438,0.193147 -0.02716,0.06083 -0.03487,0.131299 -0.01537,0.195004 0.0096,0.03128 0.02561,0.06072 0.04768,0.08487 0.02207,0.02415 0.05023,0.04292 0.08143,0.05276 0.0312,0.0098 0.0654,0.01059 0.09665,8.96e-4 0.03125,-0.0097 0.05932,-0.02998 0.0773,-0.05731 0.01708,-0.02596 0.02461,-0.05682 0.03464,-0.08623 0.0075,-0.022 0.01651,-0.04345 0.02598,-0.06467 0.03364,-0.07542 0.07315,-0.148383 0.12055,-0.216011 0.0564,-0.08047 0.12352,-0.15282 0.182909,-0.231107 0.04818,-0.06351 0.09152,-0.131228 0.14772,-0.187764 0.01104,-0.0111 0.02258,-0.02178 0.03535,-0.03083 0.01971,-0.01398 0.04222,-0.02394 0.06575,-0.02944 0.04339,-0.01014 0.08902,-0.005 0.132323,0.0055 0.02432,0.0059 0.0483,0.01351 0.07309,0.01695 0.02479,0.0034 0.05092,0.0025 0.07358,-0.0082 0.01823,-0.0086 0.03332,-0.02301 0.0445,-0.03976 0.01118,-0.01675 0.01864,-0.03575 0.02401,-0.05516 0.01095,-0.03963 0.01328,-0.08254 2.35e-4,-0.121533 -0.0087,-0.02607 -0.02411,-0.04971 -0.04339,-0.06931 -0.01928,-0.0196 -0.04238,-0.03524 -0.06712,-0.04723 -0.05734,-0.02781 -0.122617,-0.03587 -0.186298,-0.03336 -0.04091,0.0016 -0.08166,0.0074 -0.121305,0.01764 -0.142281,0.03669 -0.268306,0.132597 -0.3416,0.259949 z"
       style="fill:#ffffff;stroke:#000000;stroke-width:0.160473;stroke-linecap:butt;stroke-linejoin:miter;stroke-miterlimit:4;stroke-dasharray:none;stroke-opacity:1"
       sodipodi:nodetypes="ccscssssssscscsscssccc" />
  </g>
</svg>
